0
SECTION
2
HEADER
9
$INSUNITS
70
4
9
$ACADVER
1
AC1014
9
$HANDSEED
5
FFFF
0
ENDSEC
0
SECTION
2
TABLES
0
TABLE
2
VPORT
5
8
100
AcDbSymbolTable
0
ENDTAB
0
TABLE
2
LTYPE
5
5
100
AcDbSymbolTable
0
LTYPE
5
14
100
AcDbSymbolTableRecord
100
AcDbLinetypeTableRecord
2
BYBLOCK
70
0
0
LTYPE
5
15
100
AcDbSymbolTableRecord
100
AcDbLinetypeTableRecord
2
BYLAYER
70
0
0
LTYPE
5
16
100
AcDbSymbolTableRecord
100
AcDbLinetypeTableRecord
2
DASHED
70
0
3
Dashed __ __ __ __ __ __ __ __ __ __ __ __ __ _
72
65
73
2
40
0.75
49
0.5
74
0
49
-0.25
74
0
0
ENDTAB
0
TABLE
2
LAYER
5
2
100
AcDbSymbolTable
70
2
0
LAYER
5
50
100
AcDbSymbolTableRecord
100
AcDbLayerTableRecord
2
0
70
0
62
7
6
CONTINUOUS
0
ENDTAB
0
TABLE
2
STYLE
5
3
100
AcDbSymbolTable
70
1
0
STYLE
5
11
100
AcDbSymbolTableRecord
100
AcDbTextStyleTableRecord
2
STANDARD
70
0
0
ENDTAB
0
TABLE
2
VIEW
5
6
100
AcDbSymbolTable
70
0
0
ENDTAB
0
TABLE
2
UCS
5
7
100
AcDbSymbolTable
70
0
0
ENDTAB
0
TABLE
2
APPID
5
9
100
AcDbSymbolTable
70
2
0
APPID
5
12
100
AcDbSymbolTableRecord
100
AcDbRegAppTableRecord
2
ACAD
70
0
0
ENDTAB
0
TABLE
2
DIMSTYLE
5
A
100
AcDbSymbolTable
70
1
0
ENDTAB
0
TABLE
2
BLOCK_RECORD
5
1
100
AcDbSymbolTable
70
1
0
BLOCK_RECORD
5
1F
100
AcDbSymbolTableRecord
100
AcDbBlockTableRecord
2
*MODEL_SPACE
0
BLOCK_RECORD
5
1B
100
AcDbSymbolTableRecord
100
AcDbBlockTableRecord
2
*PAPER_SPACE
0
ENDTAB
0
ENDSEC
0
SECTION
2
BLOCKS
0
BLOCK
5
20
100
AcDbEntity
100
AcDbBlockBegin
2
*MODEL_SPACE
0
ENDBLK
5
21
100
AcDbEntity
100
AcDbBlockEnd
0
BLOCK
5
1C
100
AcDbEntity
100
AcDbBlockBegin
2
*PAPER_SPACE
0
ENDBLK
5
1D
100
AcDbEntity
100
AcDbBlockEnd
0
ENDSEC
0
SECTION
2
ENTITIES
0
POINT
5
100
100
AcDbEntity
8
0
100
AcDbPoint
10
19.949354223332335
20
28.090079997055643
30
0
0
LINE
5
101
100
AcDbEntity
8
0
100
AcDbLine
10
10.170354223332442
20
18.024779144622201
30
0
11
10.170354223332442
21
17.902930334367973
31
0
0
LINE
5
102
100
AcDbEntity
8
0
100
AcDbLine
10
10.170354223332442
20
17.902930334367973
30
0
11
8.1890381670416108
21
17.902930334367973
31
0
0
ELLIPSE
5
103
100
AcDbEntity
8
0
100
AcDbEllipse
10
8.1892702973018991
20
18.665046408337432
30
0
11
-0.53897950814716233
21
-0.53897950814727835
31
0.0
40
0.99969545988188746
41
5.4979394370296175
42
7.0684311773293453
0
ELLIPSE
5
104
100
AcDbEntity
8
0
100
AcDbEllipse
10
8.189270297301892
20
44.826814260398507
30
0
11
-0.53897950814716256
21
0.53897950814727802
31
0.0
40
0.99969545988188768
41
5.4979394370298218
42
7.0684311773295816
0
LINE
5
105
100
AcDbEntity
8
0
100
AcDbLine
10
8.1890381670416055
20
45.588930334367966
30
0
11
10.170354223332438
21
45.588930334367959
31
0
0
LINE
5
106
100
AcDbEntity
8
0
100
AcDbLine
10
10.170354223332438
20
45.588930334367959
30
0
11
10.170354223332438
21
38.15538084948934
31
0
0
LINE
5
107
100
AcDbEntity
8
0
100
AcDbLine
10
29.728354223332438
20
38.15538084948934
30
0
11
29.728354223332435
21
38.277229659743568
31
0
0
LINE
5
108
100
AcDbEntity
8
0
100
AcDbLine
10
29.728354223332435
20
38.277229659743568
30
0
11
31.709670279623264
21
38.277229659743568
31
0
0
ELLIPSE
5
109
100
AcDbEntity
8
0
100
AcDbEllipse
10
31.709438149362974
20
37.51511358577411
30
0
11
-0.53897950814716233
21
-0.53897950814727835
31
0.0
40
0.99969545988188746
41
2.3563467834398093
42
3.9268385237395433
0
ELLIPSE
5
110
100
AcDbEntity
8
0
100
AcDbEllipse
10
31.709438149362981
20
11.353345733713038
30
0
11
-0.53897950814716256
21
0.53897950814727802
31
0.0
40
0.99969545988188768
41
2.3563467834400291
42
3.9268385237397729
0
LINE
5
111
100
AcDbEntity
8
0
100
AcDbLine
10
31.709670279623268
20
10.591229659743583
30
0
11
29.728354223332438
21
10.591229659743577
31
0
0
LINE
5
112
100
AcDbEntity
8
0
100
AcDbLine
10
29.728354223332438
20
10.591229659743577
30
0
11
29.728354223332438
21
18.024779144622208
31
0
0
LINE
5
113
100
AcDbEntity
8
0
100
AcDbLine
10
5.6802937094971329
20
56.20331727589695
30
0
11
3.1810856725698304
21
56.20331727589695
31
0
0
ARC
5
114
100
AcDbEntity
8
0
100
AcDbCircle
10
409.53686247299851
20
28.000000000000007
30
5.3290705182007514e-14
40
407.3333333333336
210
-1.305142713002318e-16
220
9.0584054975074899e-18
230
1
100
AcDbArc
50
176.02972591389818
51
183.97027408610171
0
LINE
5
115
100
AcDbEntity
8
0
100
AcDbLine
10
3.18108567256985
20
-0.20331727589637971
30
0
11
5.6802937094971124
21
-0.20331727589640722
31
0
0
ARC
5
116
100
AcDbEntity
8
0
100
AcDbCircle
10
5.6802937094971151
20
-3.2033172758964068
30
0
40
3.0000000000000004
210
0
220
0
230
1
100
AcDbArc
50
0
51
90.000000000000057
0
LINE
5
117
100
AcDbEntity
8
0
100
AcDbLine
10
8.680293709497116
20
-3.2033172758964068
30
0
11
8.680293709497116
21
-5.2500000000000036
31
0
0
LINE
5
118
100
AcDbEntity
8
0
100
AcDbLine
10
8.680293709497116
20
-5.2500000000000036
30
0
11
31.226764569832373
21
-5.2499999999999947
31
0
0
LINE
5
119
100
AcDbEntity
8
0
100
AcDbLine
10
31.226764569832373
20
-5.2499999999999947
30
0
11
31.226764569832373
21
-3.2033172758964046
31
0
0
ARC
5
120
100
AcDbEntity
8
0
100
AcDbCircle
10
34.226764569832383
20
-3.2033172758964095
30
0
40
3.0000000000000004
210
0
220
-0
230
1
100
AcDbArc
50
90
51
180
0
LINE
5
121
100
AcDbEntity
8
0
100
AcDbLine
10
34.226764569832383
20
-0.20331727589640913
30
0
11
36.725972606759839
21
-0.20331727589681492
31
0
0
ARC
5
122
100
AcDbEntity
8
0
100
AcDbCircle
10
-369.62980419366875
20
28.000000000000007
30
-5.3290705182007514e-14
40
407.33333333333354
210
-1.3051427130023182e-16
220
9.0584054975074513e-18
230
1
100
AcDbArc
50
-3.9702740861018104
51
3.9702740861017149
0
LINE
5
123
100
AcDbEntity
8
0
100
AcDbLine
10
36.725972606759925
20
56.203317275896509
30
0
11
34.226764569832334
21
56.203317275896495
31
0
0
ARC
5
124
100
AcDbEntity
8
0
100
AcDbCircle
10
34.226764569832334
20
59.203317275896488
30
0
40
2.9999999999999982
210
0
220
0
230
1
100
AcDbArc
50
180
51
270
0
LINE
5
125
100
AcDbEntity
8
0
100
AcDbLine
10
31.226764569832337
20
59.203317275896488
30
0
11
31.226764569832337
21
61.250000000000007
31
0
0
LINE
5
126
100
AcDbEntity
8
0
100
AcDbLine
10
8.6802937094971355
20
61.250000000000007
30
0
11
8.6802937094971337
21
59.203317275896524
31
0
0
ARC
5
127
100
AcDbEntity
8
0
100
AcDbCircle
10
5.6802937094971329
20
59.203317275896524
30
0
40
2.9999999999995719
210
0
220
0
230
1
100
AcDbArc
50
-90
51
0
0
CIRCLE
5
128
100
AcDbEntity
8
0
100
AcDbCircle
10
19.949354223332463
20
16.48227999705577
30
0
40
2.1250000000000013
210
0
220
-0
230
1
0
CIRCLE
5
129
100
AcDbEntity
8
0
100
AcDbCircle
10
19.949354223332463
20
39.697879997055772
30
0
40
2.1250000000000013
210
0
220
-0
230
1
0
CIRCLE
5
130
100
AcDbEntity
8
0
100
AcDbCircle
10
16.01235422333237
20
28.090079997055643
30
0
40
1.0000000000000009
210
0
220
-0
230
1
0
CIRCLE
5
131
100
AcDbEntity
8
0
100
AcDbCircle
10
19.949354223332335
20
28.090079997055643
30
0
40
1.0000000000000009
210
0
220
-0
230
1
0
CIRCLE
5
132
100
AcDbEntity
8
0
100
AcDbCircle
10
23.886354223332308
20
28.090079997055643
30
0
40
0.99999999999999645
210
0
220
-0
230
1
0
LWPOLYLINE
5
133
100
AcDbEntity
8
0
100
AcDbPolyline
90
4
70
1
43
0.0
10
10.000000149011612
20
45.000000670552254
10
29.898708297653059
20
45.000000670552254
10
29.898708297653059
20
11.180159323559034
10
10.000000149011612
20
11.180159323559034
0
LINE
5
134
100
AcDbEntity
8
0
100
AcDbLine
10
10.000000149011612
20
45.000000670552254
30
0
11
29.898708297653059
21
11.180159323559034
31
0
6
DASHED
0
LINE
5
135
100
AcDbEntity
8
0
100
AcDbLine
10
29.898708297653059
20
45.000000670552254
30
0
11
10.000000149011612
21
11.180159323559034
31
0
6
DASHED
0
ENDSEC
0
SECTION
2
OBJECTS
0
DICTIONARY
5
C
100
AcDbDictionary
3
ACAD_GROUP
350
D
3
ACAD_MLINESTYLE
350
17
0
DICTIONARY
5
D
100
AcDbDictionary
0
DICTIONARY
5
1A
330
C
100
AcDbDictionary
0
DICTIONARY
5
17
100
AcDbDictionary
0
ENDSEC
0
EOF
